<svg xmlns="http://www.w3.org/2000/svg" xmlns:xlink="http://www.w3.org/1999/xlink" xmlns:lucid="lucid" width="1684.5" height="2098.43"><g transform="translate(321.5 776.9268931484933)" lucid:page-tab-id="0_0"><path d="M128.16-750.93a5 5 0 0 1 5-5h213.1a5 5 0 0 1 5 5v149.6a5 5 0 0 1-5 5h-213.1a5 5 0 0 1-5-5z" stroke="#000" stroke-opacity="0" stroke-width="2" fill="#113667"/><use xlink:href="#a" transform="matrix(1,0,0,1,133.1640786990792,-750.9268931484933) translate(37.64197530864196 65.78472222222223)"/><use xlink:href="#b" transform="matrix(1,0,0,1,133.1640786990792,-750.9268931484933) translate(137.8888888888889 65.78472222222223)"/><use xlink:href="#c" transform="matrix(1,0,0,1,133.1640786990792,-750.9268931484933) translate(63.592592592592595 87.11805555555557)"/><path d="M239.7-595.83v84.6" stroke="#333" fill="none"/><path d="M240.2-595.8h-.96v-.53h.95z" stroke="#333" stroke-width=".05" fill="#333"/><path d="M239.7-496.47l-4.63-14.27h9.28z" stroke="#333" fill="#333"/><path d="M110.64-487.86a5 5 0 0 1 5-5H363.8a5 5 0 0 1 5 5v99.28a5 5 0 0 1-5 5H115.62a5 5 0 0 1-5-5z" stroke="#225798" stroke-width="4" fill="#fff"/><use xlink:href="#d" transform="matrix(1,0,0,1,115.07332872128315,-488.41664374063174) translate(27.419753086419746 55.25347222222222)"/><use xlink:href="#e" transform="matrix(1,0,0,1,115.07332872128315,-488.41664374063174) translate(132.85185185185185 55.25347222222222)"/><use xlink:href="#f" transform="matrix(1,0,0,1,115.07332872128315,-488.41664374063174) translate(161.44444444444446 55.25347222222222)"/><path d="M559.2-516.23a5 5 0 0 1 5-5h240.62a5 5 0 0 1 5 5v156.02a5 5 0 0 1-5 5H564.2a5 5 0 0 1-5-5z" stroke="#000" stroke-opacity="0" stroke-width="2" fill="#225798"/><use xlink:href="#g" transform="matrix(1,0,0,1,564.1999543643593,-516.225060407299) translate(37.191358024691354 38.75347222222222)"/><use xlink:href="#h" transform="matrix(1,0,0,1,564.1999543643593,-516.225060407299) translate(142.62345679012344 38.75347222222222)"/><use xlink:href="#i" transform="matrix(1,0,0,1,564.1999543643593,-516.225060407299) translate(194.91975308641975 38.75347222222222)"/><use xlink:href="#j" transform="matrix(1,0,0,1,564.1999543643593,-516.225060407299) translate(42.10493827160494 60.08680555555556)"/><use xlink:href="#k" transform="matrix(1,0,0,1,564.1999543643593,-516.225060407299) translate(134.7962962962963 60.08680555555556)"/><use xlink:href="#l" transform="matrix(1,0,0,1,564.1999543643593,-516.225060407299) translate(145.61111111111111 60.08680555555556)"/><use xlink:href="#m" transform="matrix(1,0,0,1,564.1999543643593,-516.225060407299) translate(21.85802469135801 81.4201388888889)"/><use xlink:href="#n" transform="matrix(1,0,0,1,564.1999543643593,-516.225060407299) translate(106.69753086419753 81.4201388888889)"/><use xlink:href="#o" transform="matrix(1,0,0,1,564.1999543643593,-516.225060407299) translate(20.42592592592591 102.75347222222223)"/><use xlink:href="#p" transform="matrix(1,0,0,1,564.1999543643593,-516.225060407299) translate(78.64814814814814 102.75347222222223)"/><use xlink:href="#q" transform="matrix(1,0,0,1,564.1999543643593,-516.225060407299) translate(147.58641975308643 102.75347222222223)"/><use xlink:href="#i" transform="matrix(1,0,0,1,564.1999543643593,-516.225060407299) translate(211.68518518518522 102.75347222222223)"/><use xlink:href="#r" transform="matrix(1,0,0,1,564.1999543643593,-516.225060407299) translate(32.17901234567901 124.08680555555557)"/><use xlink:href="#s" transform="matrix(1,0,0,1,564.1999543643593,-516.225060407299) translate(101.21604938271605 124.08680555555557)"/><use xlink:href="#t" transform="matrix(1,0,0,1,564.1999543643593,-516.225060407299) translate(144.67283950617283 124.08680555555557)"/><use xlink:href="#u" transform="matrix(1,0,0,1,564.1999543643593,-516.225060407299) translate(159.48765432098764 124.08680555555557)"/><path d="M371.3-438.22H542.8" stroke="#333" fill="none"/><path d="M371.3-437.74h-.5v-.95h.5z" stroke="#333" stroke-width=".05" fill="#333"/><path d="M557.58-438.22l-14.26 4.64v-9.27z" stroke="#333" fill="#333"/><path d="M634.44 52.12l.84.06.83.2.8.33.74.46.65.56.55.65.45.74.33.8.2.84.07.83v37.7h-.95V57.62l-.06-.72-.18-.7-.27-.64-.37-.6-.46-.55-.54-.47-.6-.37-.66-.27-.7-.17-.72-.06H334.72v-.95zM239.76 48.3l.17.7.27.65.37.6.46.54.54.45.6.37.66.28.7.16.72.06H320v.95h-75.8l-.85-.07-.84-.2-.8-.33-.72-.45-.65-.55-.55-.66-.45-.72-.33-.8-.2-.83-.07-.84V-5.97h.95v53.55z" stroke="#333" stroke-width=".05" fill="#333"/><path d="M239.23-6.48l.47-.03v.54h-.95v-.55z" fill="#333"/><path stroke="#333" stroke-width=".05" fill="#333"/><path d="M639.42 110.04l-4.63-14.26h9.26z" fill="#333"/><path d="M639.42 111.58l-5.3-16.28h10.6zm-3.98-15.33l3.98 12.25 3.98-12.25z" stroke="#333" stroke-width=".05" fill="#333"/><use xlink:href="#v" transform="matrix(1,0,0,1,320.0250852953481,43.25909657424813) translate(0 12.444444444444446)"/><path d="M514.1 116.66a5 5 0 0 1 5-5h240.63a5 5 0 0 1 5 5v156a5 5 0 0 1-5 5H519.1a5 5 0 0 1-5-5z" stroke="#000" stroke-opacity="0" stroke-width="2" fill="#225798"/><use xlink:href="#w" transform="matrix(1,0,0,1,519.1108412982966,116.66040888159928) translate(24.302469135802454 73.09722222222223)"/><use xlink:href="#x" transform="matrix(1,0,0,1,519.1108412982966,116.66040888159928) translate(92.35185185185185 73.09722222222223)"/><use xlink:href="#y" transform="matrix(1,0,0,1,519.1108412982966,116.66040888159928) translate(117.04320987654322 73.09722222222223)"/><use xlink:href="#z" transform="matrix(1,0,0,1,519.1108412982966,116.66040888159928) translate(144.64814814814815 73.09722222222223)"/><use xlink:href="#A" transform="matrix(1,0,0,1,519.1108412982966,116.66040888159928) translate(193.04320987654322 73.09722222222223)"/><use xlink:href="#B" transform="matrix(1,0,0,1,519.1108412982966,116.66040888159928) translate(91.88271604938271 94.43055555555557)"/><path d="M239.23-381.08v84.55" stroke="#333" fill="none"/><path d="M239.7-381.07h-.95v-.5h.95z" stroke="#333" stroke-width=".05" fill="#333"/><path d="M239.23-281.76l-4.64-14.27h9.26z" stroke="#333" fill="#333"/><path d="M-300 116.66a5 5 0 0 1 5-5h240.62a5 5 0 0 1 5 5v156a5 5 0 0 1-5 5H-295a5 5 0 0 1-5-5z" stroke="#000" stroke-opacity="0" stroke-width="3" fill="#225798"/><use xlink:href="#C" transform="matrix(1,0,0,1,-295,116.66040888159928) translate(15.95679012345677 82.90972222222223)"/><use xlink:href="#D" transform="matrix(1,0,0,1,-295,116.66040888159928) translate(43.561728395061714 82.90972222222223)"/><use xlink:href="#E" transform="matrix(1,0,0,1,-295,116.66040888159928) translate(88.84567901234567 82.90972222222223)"/><use xlink:href="#F" transform="matrix(1,0,0,1,-295,116.66040888159928) translate(107.56172839506172 82.90972222222223)"/><use xlink:href="#x" transform="matrix(1,0,0,1,-295,116.66040888159928) translate(151.9567901234568 82.90972222222223)"/><use xlink:href="#G" transform="matrix(1,0,0,1,-295,116.66040888159928) translate(176.64814814814815 82.90972222222223)"/><path d="M389.27 732.84h-.94v-47.1h.94zm103.2-211.57h-98.65l-.73.06-.7.16-.65.26-.6.38-.55.46-.46.54-.37.6-.27.66-.17.7-.06.7v138.62h-.94V525.78l.06-.84.2-.84.32-.8.45-.72.56-.66.65-.55.73-.45.8-.33.84-.2.84-.08h98.7z" stroke="#333" stroke-width=".05" fill="#333"/><path d="M492.98 520.8l.04.47h-.55v-.95h.55z" fill="#333"/><path stroke="#333" stroke-width=".05" fill="#333"/><path d="M388.8 747.6l-4.63-14.26h9.26z" fill="#333"/><path d="M388.8 749.14l-5.3-16.28h10.6zm-3.98-15.33l3.98 12.27 3.98-12.26z" stroke="#333" stroke-width=".05" fill="#333"/><use xlink:href="#H" transform="matrix(1,0,0,1,361.1952597195158,664.4219755527132) translate(0 14.222222222222223)"/><use xlink:href="#I" transform="matrix(1,0,0,1,361.1952597195158,664.4219755527132) translate(25.679012345679013 14.222222222222223)"/><path d="M263.5 754.22a5 5 0 0 1 5-5h240.6a5 5 0 0 1 5 5v156.02a5 5 0 0 1-5 5H268.5a5 5 0 0 1-5-5z" stroke="#000" stroke-opacity="0" stroke-width="3" fill="#225798"/><use xlink:href="#J" transform="matrix(1,0,0,1,268.4895546839449,754.2230990664365) translate(23.290123456790113 82.90972222222223)"/><use xlink:href="#K" transform="matrix(1,0,0,1,268.4895546839449,754.2230990664365) translate(67.5864197530864 82.90972222222223)"/><use xlink:href="#L" transform="matrix(1,0,0,1,268.4895546839449,754.2230990664365) translate(161.26543209876547 82.90972222222223)"/><use xlink:href="#t" transform="matrix(1,0,0,1,268.4895546839449,754.2230990664365) translate(176.08024691358025 82.90972222222223)"/><use xlink:href="#M" transform="matrix(1,0,0,1,268.4895546839449,754.2230990664365) translate(190.8950617283951 82.90972222222223)"/><path d="M660 805a5 5 0 0 1 5-5h240.62a5 5 0 0 1 5 5v156a5 5 0 0 1-5 5H665a5 5 0 0 1-5-5z" stroke="#000" stroke-opacity="0" stroke-width="3" fill="#225798"/><use xlink:href="#J" transform="matrix(1,0,0,1,665,805) translate(23.290123456790113 82.90972222222223)"/><use xlink:href="#K" transform="matrix(1,0,0,1,665,805) translate(67.5864197530864 82.90972222222223)"/><use xlink:href="#N" transform="matrix(1,0,0,1,665,805) translate(161.26543209876547 82.90972222222223)"/><use xlink:href="#t" transform="matrix(1,0,0,1,665,805) translate(176.08024691358025 82.90972222222223)"/><use xlink:href="#M" transform="matrix(1,0,0,1,665,805) translate(190.8950617283951 82.90972222222223)"/><path d="M639.9 878.8l.04.6.14.56.22.54.3.5.4.44.43.38.5.3.54.23.56.13.62.05-.07.95-.7-.06-.7-.17-.68-.28-.63-.38-.56-.5-.46-.54-.4-.63-.27-.67-.17-.72-.05-.7V714.78h.95zm0-185.34h-.95v-35.33h.95z" stroke="#333" stroke-width=".05" fill="#333"/><path d="M639.42 657.63l.48-.03v.54h-.95v-.54z" fill="#333"/><path stroke="#333" stroke-width=".05" fill="#333"/><path d="M658.38 883l-14.26 4.64v-9.27z" fill="#333"/><path d="M659.92 883l-16.28 5.3V877.7zm-15.33 4l12.25-4-12.26-3.98z" stroke="#333" stroke-width=".05" fill="#333"/><use xlink:href="#H" transform="matrix(1,0,0,1,604.3844475684353,693.4606295787815) translate(0 14.222222222222223)"/><use xlink:href="#O" transform="matrix(1,0,0,1,604.3844475684353,693.4606295787815) translate(25.679012345679013 14.222222222222223)"/><path d="M235.57-276.7a5.36 5.36 0 0 1 7.3 0l139.3 129.98a4.67 4.67 0 0 1 0 6.82L242.88-9.92a5.36 5.36 0 0 1-7.3 0L96.27-139.9a4.67 4.67 0 0 1 0-6.82z" stroke="#225798" stroke-width="4" fill="#fff"/><use xlink:href="#P" transform="matrix(1,0,0,1,97.65572960581478,-275.0777276661047) translate(20.690185185185168 124.82722222222223)"/><use xlink:href="#Q" transform="matrix(1,0,0,1,97.65572960581478,-275.0777276661047) translate(52.19635802469134 124.82722222222223)"/><use xlink:href="#R" transform="matrix(1,0,0,1,97.65572960581478,-275.0777276661047) translate(110.41858024691356 124.82722222222223)"/><use xlink:href="#S" transform="matrix(1,0,0,1,97.65572960581478,-275.0777276661047) translate(179.35685185185184 124.82722222222223)"/><use xlink:href="#T" transform="matrix(1,0,0,1,97.65572960581478,-275.0777276661047) translate(242.56672839506172 124.82722222222223)"/><use xlink:href="#U" transform="matrix(1,0,0,1,97.65572960581478,-275.0777276661047) translate(112.3938888888889 146.16055555555556)"/><path d="M635.77 387.4a5.36 5.36 0 0 1 7.3 0l139.3 129.98a4.67 4.67 0 0 1 0 6.83L643.07 654.2a5.36 5.36 0 0 1-7.3 0L496.47 524.2a4.67 4.67 0 0 1 0-6.82z" stroke="#4397ff" stroke-width="4" fill="#fff"/><use xlink:href="#V" transform="matrix(1,0,0,1,497.25539388208745,388.43359906643684) translate(69.51734567901234 134.30034722222223)"/><use xlink:href="#W" transform="matrix(1,0,0,1,497.25539388208745,388.43359906643684) translate(127.59141975308641 134.30034722222223)"/><path d="M639.42 278.17v89.4" stroke="#333" fill="none"/><path d="M639.9 278.2h-.95v-.53h.95z" stroke="#333" stroke-width=".05" fill="#333"/><path d="M639.42 382.34l-4.63-14.26h9.26z" stroke="#333" fill="#333"/><path d="M182.87 53.07h-352.54l-.73.05-.7.17-.64.26-.6.37-.55.46-.45.53-.37.6-.27.66-.16.68-.05.73V95.3h-.96v-37.7l.06-.84.2-.84.33-.8.45-.73.56-.65.65-.56.72-.45.8-.32.83-.2.84-.06h352.57zm56.83-5.46l-.06.85-.2.83-.33.8-.44.73-.56.67-.65.55-.74.45-.78.33-.84.2-.84.07h-28.08v-.95h28.05l.73-.06.7-.16.65-.28.6-.37.55-.46.46-.55.36-.6.27-.66.16-.7.05-.73V-5.98h.95z" stroke="#333" stroke-width=".05" fill="#333"/><path d="M239.23-6.48l.47-.03v.54h-.95v-.55z" fill="#333"/><path stroke="#333" stroke-width=".05" fill="#333"/><path d="M-174.7 110.04l-4.63-14.26h9.28z" fill="#333"/><path d="M-174.7 111.58l-5.28-16.28h10.58zm-3.97-15.33l3.98 12.25 4-12.25z" stroke="#333" stroke-width=".05" fill="#333"/><g><use xlink:href="#X" transform="matrix(1,0,0,1,182.8711477417853,43.25909657424814) translate(0 12.444444444444446)"/></g><path d="M765.73 194.67h60.5" stroke="#5e5e5e" stroke-width="2" fill="none"/><path d="M765.76 195.64h-1.03v-1.95h1.03z" stroke="#5e5e5e" stroke-width=".05" fill="#5e5e5e"/><path d="M841.5 194.67l-14.27 4.63v-9.27z" stroke="#5e5e5e" stroke-width="2" fill="#5e5e5e"/><path d="M844.73 116.66a5 5 0 0 1 5-5h240.62a5 5 0 0 1 5 5v156a5 5 0 0 1-5 5H849.73a5 5 0 0 1-5-5z" stroke="#000" stroke-opacity="0" stroke-width="2" fill="#225798"/><g><use xlink:href="#Y" transform="matrix(1,0,0,1,849.732127912648,116.66040888159928) translate(12.969135802469125 73.09722222222223)"/><use xlink:href="#E" transform="matrix(1,0,0,1,849.732127912648,116.66040888159928) translate(53.413580246913575 73.09722222222223)"/><use xlink:href="#Z" transform="matrix(1,0,0,1,849.732127912648,116.66040888159928) translate(72.12962962962962 73.09722222222223)"/><use xlink:href="#x" transform="matrix(1,0,0,1,849.732127912648,116.66040888159928) translate(119.48765432098766 73.09722222222223)"/><use xlink:href="#aa" transform="matrix(1,0,0,1,849.732127912648,116.66040888159928) translate(144.17901234567904 73.09722222222223)"/><use xlink:href="#ab" transform="matrix(1,0,0,1,849.732127912648,116.66040888159928) translate(208.27777777777777 73.09722222222223)"/><use xlink:href="#ac" transform="matrix(1,0,0,1,849.732127912648,116.66040888159928) translate(43.09259259259258 94.43055555555557)"/><use xlink:href="#ad" transform="matrix(1,0,0,1,849.732127912648,116.66040888159928) translate(94.35185185185185 94.43055555555557)"/><use xlink:href="#ae" transform="matrix(1,0,0,1,849.732127912648,116.66040888159928) translate(122.94444444444443 94.43055555555557)"/></g><path d="M1020.98 1233.96l.06.83.18.75.3.73.42.67.5.6.6.5.68.42.73.3.76.2.84.06h115.46v1.94h-115.54l-1.05-.08-1.06-.26-1-.42-.94-.58-.83-.7-.72-.84-.57-.93-.42-1-.25-1.08-.08-1.06V839.2h1.96zM640.4 673.6l.06.82.18.76.3.73.42.68.5.6.6.5.68.43.73.3.77.2.82.06h368.58l1.05.08 1.06.25 1 .4.94.6.83.7.72.83.57.93.42 1 .25 1.08.08 1.05v132.26H1019v-132.2l-.06-.8-.18-.78-.3-.73-.42-.67-.5-.6-.6-.5-.68-.42-.73-.3-.76-.2-.84-.05H645.38l-1.05-.08-1.07-.25-1-.42-.94-.57-.83-.7-.72-.85-.58-.93-.42-1-.25-1.08-.08-1.05v-15.04h1.95z" stroke="#5e5e5e" stroke-width=".05" fill="#5e5e5e"/><path d="M639.42 657.63l.98-.07v1.1h-1.95v-1.1z" fill="#5e5e5e"/><path stroke="#5e5e5e" stroke-width=".05" fill="#5e5e5e"/><path d="M1156.76 1240l-14.26 4.63v-9.27z" fill="#5e5e5e"/><path d="M1159.92 1240l-18.4 5.98v-11.96zm-16.45 3.3l10.14-3.3-10.13-3.3z" stroke="#5e5e5e" stroke-width=".05" fill="#5e5e5e"/><g><use xlink:href="#af" transform="matrix(1,0,0,1,981.0617283950617,817.859464469122) translate(0.005000000000002558 14.222222222222223)"/><use xlink:href="#ag" transform="matrix(1,0,0,1,981.0617283950617,817.859464469122) translate(39.461790123456794 14.222222222222223)"/></g><path d="M1160 1185a5 5 0 0 1 5-5h150a5 5 0 0 1 5 5v110a5 5 0 0 1-5 5h-150a5 5 0 0 1-5-5z" stroke="#000" stroke-opacity="0" stroke-width="3" fill="#225798"/><g><use xlink:href="#ah" transform="matrix(1,0,0,1,1172,1192) translate(40.370370370370374 29.22222222222222)"/><use xlink:href="#ai" transform="matrix(1,0,0,1,1172,1192) translate(6.8395061728395135 50.55555555555555)"/><use xlink:href="#aj" transform="matrix(1,0,0,1,1172,1192) translate(119.28395061728395 50.55555555555555)"/><use xlink:href="#ak" transform="matrix(1,0,0,1,1172,1192) translate(59.53086419753087 71.88888888888889)"/></g><path d="M492.82 1025a5 5 0 0 1 5-5h150a5 5 0 0 1 5 5v110a5 5 0 0 1-5 5h-150a5 5 0 0 1-5-5z" stroke="#000" stroke-opacity="0" stroke-width="3" fill="#225798"/><g><use xlink:href="#al" transform="matrix(1,0,0,1,504.81739388208746,1032) translate(19.913580246913583 38.77777777777778)"/><use xlink:href="#am" transform="matrix(1,0,0,1,504.81739388208746,1032) translate(103.74074074074073 38.77777777777778)"/><use xlink:href="#an" transform="matrix(1,0,0,1,504.81739388208746,1032) translate(25.407407407407405 65.44444444444446)"/></g><path d="M785.3 967v107a6 6 0 0 1-6 6H671.33" stroke="#5e5e5e" stroke-width="2" fill="none"/><path d="M786.3 967.04h-1.96V966h1.95z" stroke="#5e5e5e" stroke-width=".05" fill="#5e5e5e"/><path d="M656.05 1080l14.27-4.63v9.27z" stroke="#5e5e5e" stroke-width="2" fill="#5e5e5e"/><path d="M388.8 916.24V1074a6 6 0 0 0 6 6h79.52" stroke="#5e5e5e" stroke-width="2" fill="none"/><path d="M389.77 916.26h-1.94v-1.02h1.94z" stroke="#5e5e5e" stroke-width=".05" fill="#5e5e5e"/><path d="M489.58 1080l-14.26 4.63v-9.27z" stroke="#5e5e5e" stroke-width="2" fill="#5e5e5e"/><path d="M572.82 1141v89a6 6 0 0 0 6 6h422.68" stroke="#5e5e5e" stroke-width="2" fill="none"/><path d="M573.8 1141.03h-1.96V1140h1.95z" stroke="#5e5e5e" stroke-width=".05" fill="#5e5e5e"/><path d="M1016.76 1236l-14.26 4.63v-9.27z" stroke="#5e5e5e" stroke-width="2" fill="#5e5e5e"/><path d="M-173.7 1221.96l.05.83.18.75.3.73.42.67.5.6.6.5.68.42.73.3.77.2.82.06h722.97v1.94h-723.05l-1.05-.08-1.07-.26-1-.42-.94-.58-.82-.7-.72-.84-.57-.93-.43-1-.25-1.08-.08-1.06V278.67h1.95z" stroke="#5e5e5e" stroke-width=".05" fill="#5e5e5e"/><path d="M-173.7 278.7h-1.96v-1.03h1.95z" fill="#5e5e5e"/><path stroke="#5e5e5e" stroke-width=".05" fill="#5e5e5e"/><path d="M569.58 1228l-14.26 4.63v-9.27z" fill="#5e5e5e"/><path d="M572.74 1228l-18.4 5.98v-11.96zm-16.45 3.3l10.13-3.3-10.14-3.3zM1355.1-338.9l1.06.26 1 .42.94.58.83.7.7.84.6.93.4 1 .26 1.08.07 1.06v1566.08l-.08 1.05-.26 1.06-.42 1-.58.94-.7.83-.84.7-.93.6-1 .4-1.08.26-1.06.07H1321v-1.94h32.96l.83-.07.75-.18.73-.3.67-.42.6-.5.5-.6.42-.68.3-.73.2-.76.06-.84V-331.96l-.07-.83-.18-.75-.3-.73-.42-.67-.5-.6-.6-.5-.68-.43-.73-.3-.76-.18-.84-.06H257.73v-1.96h1096.3z" stroke="#5e5e5e" stroke-width=".05" fill="#5e5e5e"/><path d="M1321.03 1240.97H1320v-1.94h1.03z" fill="#5e5e5e"/><path stroke="#5e5e5e" stroke-width=".05" fill="#5e5e5e"/><path d="M256.73-333.37L242.46-338l14.27-4.63z" fill="#5e5e5e"/><path d="M257.7-332.02L239.3-338l18.4-5.98zM245.62-338l10.13 3.3v-6.6z" stroke="#5e5e5e" stroke-width=".05" fill="#5e5e5e"/><defs><path fill="#fff" d="M185-189c-5-48-123-54-124 2 14 75 158 14 163 119 3 78-121 87-175 55-17-10-28-26-33-46l33-7c5 56 141 63 141-1 0-78-155-14-162-118-5-82 145-84 179-34 5 7 8 16 11 25" id="ao"/><path fill="#fff" d="M30 0v-248h187v28H63v79h144v27H63v87h162V0H30" id="ap"/><path fill="#fff" d="M30 0v-248h33v221h125V0H30" id="aq"/><path fill="#fff" d="M212-179c-10-28-35-45-73-45-59 0-87 40-87 99 0 60 29 101 89 101 43 0 62-24 78-52l27 14C228-24 195 4 139 4 59 4 22-46 18-125c-6-104 99-153 187-111 19 9 31 26 39 46" id="ar"/><path fill="#fff" d="M127-220V0H93v-220H8v-28h204v28h-85" id="as"/><path fill="#fff" d="M140-251c81 0 123 46 123 126C263-46 219 4 140 4 59 4 17-45 17-125s42-126 123-126zm0 227c63 0 89-41 89-101s-29-99-89-99c-61 0-89 39-89 99S79-25 140-24" id="at"/><path fill="#fff" d="M233-177c-1 41-23 64-60 70L243 0h-38l-65-103H63V0H30v-248c88 3 205-21 203 71zM63-129c60-2 137 13 137-47 0-61-80-42-137-45v92" id="au"/><g id="a"><use transform="matrix(0.04938271604938272,0,0,0.04938271604938272,0,0)" xlink:href="#ao"/><use transform="matrix(0.04938271604938272,0,0,0.04938271604938272,11.851851851851853,0)" xlink:href="#ap"/><use transform="matrix(0.04938271604938272,0,0,0.04938271604938272,23.703703703703706,0)" xlink:href="#aq"/><use transform="matrix(0.04938271604938272,0,0,0.04938271604938272,33.580246913580254,0)" xlink:href="#ap"/><use transform="matrix(0.04938271604938272,0,0,0.04938271604938272,45.43209876543211,0)" xlink:href="#ar"/><use transform="matrix(0.04938271604938272,0,0,0.04938271604938272,58.222222222222236,0)" xlink:href="#as"/><use transform="matrix(0.04938271604938272,0,0,0.04938271604938272,68.69135802469137,0)" xlink:href="#at"/><use transform="matrix(0.04938271604938272,0,0,0.04938271604938272,82.51851851851853,0)" xlink:href="#au"/></g><path fill="#fff" d="M30-248c87 1 191-15 191 75 0 78-77 80-158 76V0H30v-248zm33 125c57 0 124 11 124-50 0-59-68-47-124-48v98" id="av"/><g id="b"><use transform="matrix(0.04938271604938272,0,0,0.04938271604938272,0,0)" xlink:href="#av"/><use transform="matrix(0.04938271604938272,0,0,0.04938271604938272,11.851851851851853,0)" xlink:href="#at"/><use transform="matrix(0.04938271604938272,0,0,0.04938271604938272,25.679012345679016,0)" xlink:href="#au"/></g><g id="c"><use transform="matrix(0.04938271604938272,0,0,0.04938271604938272,0,0)" xlink:href="#ar"/><use transform="matrix(0.04938271604938272,0,0,0.04938271604938272,12.790123456790125,0)" xlink:href="#at"/><use transform="matrix(0.04938271604938272,0,0,0.04938271604938272,26.617283950617285,0)" xlink:href="#aq"/><use transform="matrix(0.04938271604938272,0,0,0.04938271604938272,36.49382716049383,0)" xlink:href="#at"/><use transform="matrix(0.04938271604938272,0,0,0.04938271604938272,50.32098765432099,0)" xlink:href="#au"/><use transform="matrix(0.04938271604938272,0,0,0.04938271604938272,63.111111111111114,0)" xlink:href="#ap"/><use transform="matrix(0.04938271604938272,0,0,0.04938271604938272,74.96296296296296,0)" xlink:href="#ao"/></g><path fill="#333" d="M33 0v-248h34V0H33" id="aw"/><path fill="#333" d="M117-194c89-4 53 116 60 194h-32v-121c0-31-8-49-39-48C34-167 62-67 57 0H25l-1-190h30c1 10-1 24 2 32 11-22 29-35 61-36" id="ax"/><path fill="#333" d="M24-231v-30h32v30H24zM24 0v-190h32V0H24" id="ay"/><path fill="#333" d="M96-169c-40 0-48 33-48 73s9 75 48 75c24 0 41-14 43-38l32 2c-6 37-31 61-74 61-59 0-76-41-82-99-10-93 101-131 147-64 4 7 5 14 7 22l-32 3c-4-21-16-35-41-35" id="az"/><path fill="#333" d="M141-36C126-15 110 5 73 4 37 3 15-17 15-53c-1-64 63-63 125-63 3-35-9-54-41-54-24 1-41 7-42 31l-33-3c5-37 33-52 76-52 45 0 72 20 72 64v82c-1 20 7 32 28 27v20c-31 9-61-2-59-35zM48-53c0 20 12 33 32 33 41-3 63-29 60-74-43 2-92-5-92 41" id="aA"/><path fill="#333" d="M24 0v-261h32V0H24" id="aB"/><path fill="#333" d="M9 0v-24l116-142H16v-24h144v24L44-24h123V0H9" id="aC"/><path fill="#333" d="M100-194c62-1 85 37 85 99 1 63-27 99-86 99S16-35 15-95c0-66 28-99 85-99zM99-20c44 1 53-31 53-75 0-43-8-75-51-75s-53 32-53 75 10 74 51 75zM76-211c8-23 27-35 38-54h36v5l-58 49H76" id="aD"/><g id="d"><use transform="matrix(0.04938271604938272,0,0,0.04938271604938272,0,0)" xlink:href="#aw"/><use transform="matrix(0.04938271604938272,0,0,0.04938271604938272,4.938271604938272,0)" xlink:href="#ax"/><use transform="matrix(0.04938271604938272,0,0,0.04938271604938272,14.814814814814817,0)" xlink:href="#ay"/><use transform="matrix(0.04938271604938272,0,0,0.04938271604938272,18.71604938271605,0)" xlink:href="#az"/><use transform="matrix(0.04938271604938272,0,0,0.04938271604938272,27.60493827160494,0)" xlink:href="#ay"/><use transform="matrix(0.04938271604938272,0,0,0.04938271604938272,31.506172839506174,0)" xlink:href="#aA"/><use transform="matrix(0.04938271604938272,0,0,0.04938271604938272,41.38271604938272,0)" xlink:href="#aB"/><use transform="matrix(0.04938271604938272,0,0,0.04938271604938272,45.283950617283956,0)" xlink:href="#ay"/><use transform="matrix(0.04938271604938272,0,0,0.04938271604938272,49.18518518518519,0)" xlink:href="#aC"/><use transform="matrix(0.04938271604938272,0,0,0.04938271604938272,58.074074074074076,0)" xlink:href="#aA"/><use transform="matrix(0.04938271604938272,0,0,0.04938271604938272,67.95061728395062,0)" xlink:href="#az"/><use transform="matrix(0.04938271604938272,0,0,0.04938271604938272,76.8395061728395,0)" xlink:href="#ay"/><use transform="matrix(0.04938271604938272,0,0,0.04938271604938272,80.74074074074075,0)" xlink:href="#aD"/><use transform="matrix(0.04938271604938272,0,0,0.04938271604938272,90.61728395061729,0)" xlink:href="#ax"/></g><path fill="#333" d="M85-194c31 0 48 13 60 33l-1-100h32l1 261h-30c-2-10 0-23-3-31C134-8 116 4 85 4 32 4 16-35 15-94c0-66 23-100 70-100zm9 24c-40 0-46 34-46 75 0 40 6 74 45 74 42 0 51-32 51-76 0-42-9-74-50-73" id="aE"/><path fill="#333" d="M100-194c63 0 86 42 84 106H49c0 40 14 67 53 68 26 1 43-12 49-29l28 8c-11 28-37 45-77 45C44 4 14-33 15-96c1-61 26-98 85-98zm52 81c6-60-76-77-97-28-3 7-6 17-6 28h103" id="aF"/><g id="e"><use transform="matrix(0.04938271604938272,0,0,0.04938271604938272,0,0)" xlink:href="#aE"/><use transform="matrix(0.04938271604938272,0,0,0.04938271604938272,9.876543209876544,0)" xlink:href="#aF"/><use transform="matrix(0.04938271604938272,0,0,0.04938271604938272,19.75308641975309,0)" xlink:href="#aB"/></g><path fill="#333" d="M135-143c-3-34-86-38-87 0 15 53 115 12 119 90S17 21 10-45l28-5c4 36 97 45 98 0-10-56-113-15-118-90-4-57 82-63 122-42 12 7 21 19 24 35" id="aG"/><path fill="#333" d="M59-47c-2 24 18 29 38 22v24C64 9 27 4 27-40v-127H5v-23h24l9-43h21v43h35v23H59v120" id="aH"/><path fill="#333" d="M210-169c-67 3-38 105-44 169h-31v-121c0-29-5-50-35-48C34-165 62-65 56 0H25l-1-190h30c1 10-1 24 2 32 10-44 99-50 107 0 11-21 27-35 58-36 85-2 47 119 55 194h-31v-121c0-29-5-49-35-48" id="aI"/><g id="f"><use transform="matrix(0.04938271604938272,0,0,0.04938271604938272,0,0)" xlink:href="#aG"/><use transform="matrix(0.04938271604938272,0,0,0.04938271604938272,8.88888888888889,0)" xlink:href="#ay"/><use transform="matrix(0.04938271604938272,0,0,0.04938271604938272,12.790123456790125,0)" xlink:href="#aG"/><use transform="matrix(0.04938271604938272,0,0,0.04938271604938272,21.679012345679013,0)" xlink:href="#aH"/><use transform="matrix(0.04938271604938272,0,0,0.04938271604938272,26.617283950617285,0)" xlink:href="#aF"/><use transform="matrix(0.04938271604938272,0,0,0.04938271604938272,36.49382716049383,0)" xlink:href="#aI"/><use transform="matrix(0.04938271604938272,0,0,0.04938271604938272,51.25925925925927,0)" xlink:href="#aA"/></g><path fill="#fff" d="M33 0v-248h34V0H33" id="aJ"/><path fill="#fff" d="M117-194c89-4 53 116 60 194h-32v-121c0-31-8-49-39-48C34-167 62-67 57 0H25l-1-190h30c1 10-1 24 2 32 11-22 29-35 61-36" id="aK"/><path fill="#fff" d="M24-231v-30h32v30H24zM24 0v-190h32V0H24" id="aL"/><path fill="#fff" d="M96-169c-40 0-48 33-48 73s9 75 48 75c24 0 41-14 43-38l32 2c-6 37-31 61-74 61-59 0-76-41-82-99-10-93 101-131 147-64 4 7 5 14 7 22l-32 3c-4-21-16-35-41-35" id="aM"/><path fill="#fff" d="M141-36C126-15 110 5 73 4 37 3 15-17 15-53c-1-64 63-63 125-63 3-35-9-54-41-54-24 1-41 7-42 31l-33-3c5-37 33-52 76-52 45 0 72 20 72 64v82c-1 20 7 32 28 27v20c-31 9-61-2-59-35zM48-53c0 20 12 33 32 33 41-3 63-29 60-74-43 2-92-5-92 41" id="aN"/><path fill="#fff" d="M24 0v-261h32V0H24" id="aO"/><path fill="#fff" d="M9 0v-24l116-142H16v-24h144v24L44-24h123V0H9" id="aP"/><path fill="#fff" d="M100-194c62-1 85 37 85 99 1 63-27 99-86 99S16-35 15-95c0-66 28-99 85-99zM99-20c44 1 53-31 53-75 0-43-8-75-51-75s-53 32-53 75 10 74 51 75zM76-211c8-23 27-35 38-54h36v5l-58 49H76" id="aQ"/><g id="g"><use transform="matrix(0.04938271604938272,0,0,0.04938271604938272,0,0)" xlink:href="#aJ"/><use transform="matrix(0.04938271604938272,0,0,0.04938271604938272,4.938271604938272,0)" xlink:href="#aK"/><use transform="matrix(0.04938271604938272,0,0,0.04938271604938272,14.814814814814817,0)" xlink:href="#aL"/><use transform="matrix(0.04938271604938272,0,0,0.04938271604938272,18.71604938271605,0)" xlink:href="#aM"/><use transform="matrix(0.04938271604938272,0,0,0.04938271604938272,27.60493827160494,0)" xlink:href="#aL"/><use transform="matrix(0.04938271604938272,0,0,0.04938271604938272,31.506172839506174,0)" xlink:href="#aN"/><use transform="matrix(0.04938271604938272,0,0,0.04938271604938272,41.38271604938272,0)" xlink:href="#aO"/><use transform="matrix(0.04938271604938272,0,0,0.04938271604938272,45.283950617283956,0)" xlink:href="#aL"/><use transform="matrix(0.04938271604938272,0,0,0.04938271604938272,49.18518518518519,0)" xlink:href="#aP"/><use transform="matrix(0.04938271604938272,0,0,0.04938271604938272,58.074074074074076,0)" xlink:href="#aN"/><use transform="matrix(0.04938271604938272,0,0,0.04938271604938272,67.95061728395062,0)" xlink:href="#aM"/><use transform="matrix(0.04938271604938272,0,0,0.04938271604938272,76.8395061728395,0)" xlink:href="#aL"/><use transform="matrix(0.04938271604938272,0,0,0.04938271604938272,80.74074074074075,0)" xlink:href="#aQ"/><use transform="matrix(0.04938271604938272,0,0,0.04938271604938272,90.61728395061729,0)" xlink:href="#aK"/></g><path fill="#fff" d="M63-220v92h138v28H63V0H30v-248h175v28H63" id="aR"/><path fill="#fff" d="M143 4C61 4 22-44 18-125c-5-107 100-154 193-111 17 8 29 25 37 43l-32 9c-13-25-37-40-76-40-61 0-88 39-88 99 0 61 29 100 91 101 35 0 62-11 79-27v-45h-74v-28h105v86C228-13 192 4 143 4" id="aS"/><path fill="#fff" d="M205 0l-28-72H64L36 0H1l101-248h38L239 0h-34zm-38-99l-47-123c-12 45-31 82-46 123h93" id="aT"/><g id="h"><use transform="matrix(0.04938271604938272,0,0,0.04938271604938272,0,0)" xlink:href="#aR"/><use transform="matrix(0.04938271604938272,0,0,0.04938271604938272,10.814814814814815,0)" xlink:href="#av"/><use transform="matrix(0.04938271604938272,0,0,0.04938271604938272,22.666666666666668,0)" xlink:href="#aS"/><use transform="matrix(0.04938271604938272,0,0,0.04938271604938272,36.49382716049383,0)" xlink:href="#aT"/></g><path fill="#fff" d="M179-190L93 31C79 59 56 82 12 73V49c39 6 53-20 64-50L1-190h34L92-34l54-156h33" id="aU"/><use transform="matrix(0.04938271604938272,0,0,0.04938271604938272,0,0)" xlink:href="#aU" id="i"/><path fill="#fff" d="M115-194c55 1 70 41 70 98S169 2 115 4C84 4 66-9 55-30l1 105H24l-1-265h31l2 30c10-21 28-34 59-34zm-8 174c40 0 45-34 45-75s-6-73-45-74c-42 0-51 32-51 76 0 43 10 73 51 73" id="aV"/><path fill="#fff" d="M100-194c63 0 86 42 84 106H49c0 40 14 67 53 68 26 1 43-12 49-29l28 8c-11 28-37 45-77 45C44 4 14-33 15-96c1-61 26-98 85-98zm52 81c6-60-76-77-97-28-3 7-6 17-6 28h103" id="aW"/><path fill="#fff" d="M114-163C36-179 61-72 57 0H25l-1-190h30c1 12-1 29 2 39 6-27 23-49 58-41v29" id="aX"/><path fill="#fff" d="M101-234c-31-9-42 10-38 44h38v23H63V0H32v-167H5v-23h27c-7-52 17-82 69-68v24" id="aY"/><path fill="#fff" d="M100-194c63 0 86 42 84 106H49c0 40 14 67 53 68 26 1 43-12 49-29l28 8c-11 28-37 45-77 45C44 4 14-33 15-96c1-61 26-98 85-98zm52 81c6-60-76-77-97-28-3 7-6 17-6 28h103zm-74-98c8-23 27-35 38-54h36v5l-58 49H78" id="aZ"/><path fill="#fff" d="M100-194c62-1 85 37 85 99 1 63-27 99-86 99S16-35 15-95c0-66 28-99 85-99zM99-20c44 1 53-31 53-75 0-43-8-75-51-75s-53 32-53 75 10 74 51 75" id="ba"/><path fill="#fff" d="M135-143c-3-34-86-38-87 0 15 53 115 12 119 90S17 21 10-45l28-5c4 36 97 45 98 0-10-56-113-15-118-90-4-57 82-63 122-42 12 7 21 19 24 35" id="bb"/><g id="j"><use transform="matrix(0.04938271604938272,0,0,0.04938271604938272,0,0)" xlink:href="#aV"/><use transform="matrix(0.04938271604938272,0,0,0.04938271604938272,9.876543209876544,0)" xlink:href="#aW"/><use transform="matrix(0.04938271604938272,0,0,0.04938271604938272,19.75308641975309,0)" xlink:href="#aX"/><use transform="matrix(0.04938271604938272,0,0,0.04938271604938272,25.629629629629633,0)" xlink:href="#aW"/><use transform="matrix(0.04938271604938272,0,0,0.04938271604938272,35.50617283950618,0)" xlink:href="#aY"/><use transform="matrix(0.04938271604938272,0,0,0.04938271604938272,40.44444444444445,0)" xlink:href="#aZ"/><use transform="matrix(0.04938271604938272,0,0,0.04938271604938272,50.320987654320994,0)" xlink:href="#aX"/><use transform="matrix(0.04938271604938272,0,0,0.04938271604938272,56.19753086419754,0)" xlink:href="#aL"/><use transform="matrix(0.04938271604938272,0,0,0.04938271604938272,60.09876543209877,0)" xlink:href="#aM"/><use transform="matrix(0.04938271604938272,0,0,0.04938271604938272,68.98765432098766,0)" xlink:href="#ba"/><use transform="matrix(0.04938271604938272,0,0,0.04938271604938272,78.8641975308642,0)" xlink:href="#bb"/></g><path fill="#fff" d="M87 75C49 33 22-17 22-94c0-76 28-126 65-167h31c-38 41-64 92-64 168S80 34 118 75H87" id="bc"/><use transform="matrix(0.04938271604938272,0,0,0.04938271604938272,0,0)" xlink:href="#bc" id="k"/><g id="l"><use transform="matrix(0.04938271604938272,0,0,0.04938271604938272,0,0)" xlink:href="#bb"/><use transform="matrix(0.04938271604938272,0,0,0.04938271604938272,8.88888888888889,0)" xlink:href="#aW"/><use transform="matrix(0.04938271604938272,0,0,0.04938271604938272,18.765432098765434,0)" xlink:href="#aK"/><use transform="matrix(0.04938271604938272,0,0,0.04938271604938272,28.641975308641978,0)" xlink:href="#bb"/><use transform="matrix(0.04938271604938272,0,0,0.04938271604938272,37.53086419753087,0)" xlink:href="#ba"/><use transform="matrix(0.04938271604938272,0,0,0.04938271604938272,47.40740740740741,0)" xlink:href="#aX"/></g><path fill="#fff" d="M126-127c33 6 58 20 58 59 0 88-139 92-164 29-3-8-5-16-6-25l32-3c6 27 21 44 54 44 32 0 52-15 52-46 0-38-36-46-79-43v-28c39 1 72-4 72-42 0-27-17-43-46-43-28 0-47 15-49 41l-32-3c6-42 35-63 81-64 48-1 79 21 79 65 0 36-21 52-52 59" id="bd"/><path fill="#fff" d="M101-251c82-7 93 87 43 132L82-64C71-53 59-42 53-27h129V0H18c2-99 128-94 128-182 0-28-16-43-45-43s-46 15-49 41l-32-3c6-41 34-60 81-64" id="be"/><path fill="#fff" d="M101-251c68 0 85 55 85 127S166 4 100 4C33 4 14-52 14-124c0-73 17-127 87-127zm-1 229c47 0 54-49 54-102s-4-102-53-102c-51 0-55 48-55 102 0 53 5 102 54 102" id="bf"/><path fill="#fff" d="M68-38c1 34 0 65-14 84H32c9-13 17-26 17-46H33v-38h35" id="bg"/><g id="m"><use transform="matrix(0.04938271604938272,0,0,0.04938271604938272,0,0)" xlink:href="#as"/><use transform="matrix(0.04938271604938272,0,0,0.04938271604938272,10.814814814814815,0)" xlink:href="#ar"/><use transform="matrix(0.04938271604938272,0,0,0.04938271604938272,23.60493827160494,0)" xlink:href="#ao"/><use transform="matrix(0.04938271604938272,0,0,0.04938271604938272,35.45679012345679,0)" xlink:href="#bd"/><use transform="matrix(0.04938271604938272,0,0,0.04938271604938272,45.333333333333336,0)" xlink:href="#be"/><use transform="matrix(0.04938271604938272,0,0,0.04938271604938272,55.20987654320988,0)" xlink:href="#bf"/><use transform="matrix(0.04938271604938272,0,0,0.04938271604938272,65.08641975308643,0)" xlink:href="#bf"/><use transform="matrix(0.04938271604938272,0,0,0.04938271604938272,74.96296296296298,0)" xlink:href="#bg"/></g><path fill="#fff" d="M108 0H70L1-190h34L89-25l56-165h34" id="bh"/><path fill="#fff" d="M210-169c-67 3-38 105-44 169h-31v-121c0-29-5-50-35-48C34-165 62-65 56 0H25l-1-190h30c1 10-1 24 2 32 10-44 99-50 107 0 11-21 27-35 58-36 85-2 47 119 55 194h-31v-121c0-29-5-49-35-48" id="bi"/><path fill="#fff" d="M59-47c-2 24 18 29 38 22v24C64 9 27 4 27-40v-127H5v-23h24l9-43h21v43h35v23H59v120" id="bj"/><g id="n"><use transform="matrix(0.04938271604938272,0,0,0.04938271604938272,0,0)" xlink:href="#bb"/><use transform="matrix(0.04938271604938272,0,0,0.04938271604938272,8.88888888888889,0)" xlink:href="#aW"/><use transform="matrix(0.04938271604938272,0,0,0.04938271604938272,18.765432098765434,0)" xlink:href="#aX"/><use transform="matrix(0.04938271604938272,0,0,0.04938271604938272,24.641975308641978,0)" xlink:href="#bh"/><use transform="matrix(0.04938271604938272,0,0,0.04938271604938272,33.53086419753087,0)" xlink:href="#ba"/><use transform="matrix(0.04938271604938272,0,0,0.04938271604938272,43.40740740740741,0)" xlink:href="#bi"/><use transform="matrix(0.04938271604938272,0,0,0.04938271604938272,58.17283950617284,0)" xlink:href="#ba"/><use transform="matrix(0.04938271604938272,0,0,0.04938271604938272,68.0493827160494,0)" xlink:href="#bj"/><use transform="matrix(0.04938271604938272,0,0,0.04938271604938272,72.98765432098767,0)" xlink:href="#ba"/><use transform="matrix(0.04938271604938272,0,0,0.04938271604938272,82.86419753086422,0)" xlink:href="#aX"/><use transform="matrix(0.04938271604938272,0,0,0.04938271604938272,88.74074074074076,0)" xlink:href="#aW"/><use transform="matrix(0.04938271604938272,0,0,0.04938271604938272,98.6172839506173,0)" xlink:href="#bb"/><use transform="matrix(0.04938271604938272,0,0,0.04938271604938272,107.50617283950618,0)" xlink:href="#bg"/></g><g id="o"><use transform="matrix(0.04938271604938272,0,0,0.04938271604938272,0,0)" xlink:href="#bb"/><use transform="matrix(0.04938271604938272,0,0,0.04938271604938272,8.88888888888889,0)" xlink:href="#aW"/><use transform="matrix(0.04938271604938272,0,0,0.04938271604938272,18.765432098765434,0)" xlink:href="#aK"/><use transform="matrix(0.04938271604938272,0,0,0.04938271604938272,28.641975308641978,0)" xlink:href="#bb"/><use transform="matrix(0.04938271604938272,0,0,0.04938271604938272,37.53086419753087,0)" xlink:href="#ba"/><use transform="matrix(0.04938271604938272,0,0,0.04938271604938272,47.40740740740741,0)" xlink:href="#aX"/></g><path fill="#fff" d="M24-231v-30h32v30H24zM-9 49c24 4 33-6 33-30v-209h32V24c2 40-23 58-65 49V49" id="bk"/><g id="p"><use transform="matrix(0.04938271604938272,0,0,0.04938271604938272,0,0)" xlink:href="#aL"/><use transform="matrix(0.04938271604938272,0,0,0.04938271604938272,3.901234567901235,0)" xlink:href="#aK"/><use transform="matrix(0.04938271604938272,0,0,0.04938271604938272,13.777777777777779,0)" xlink:href="#aY"/><use transform="matrix(0.04938271604938272,0,0,0.04938271604938272,18.71604938271605,0)" xlink:href="#aX"/><use transform="matrix(0.04938271604938272,0,0,0.04938271604938272,24.592592592592595,0)" xlink:href="#aN"/><use transform="matrix(0.04938271604938272,0,0,0.04938271604938272,34.46913580246914,0)" xlink:href="#aX"/><use transform="matrix(0.04938271604938272,0,0,0.04938271604938272,40.345679012345684,0)" xlink:href="#ba"/><use transform="matrix(0.04938271604938272,0,0,0.04938271604938272,50.22222222222223,0)" xlink:href="#bk"/><use transform="matrix(0.04938271604938272,0,0,0.04938271604938272,54.12345679012346,0)" xlink:href="#ba"/></g><path fill="#fff" d="M197 0v-115H63V0H30v-248h33v105h134v-105h34V0h-34" id="bl"/><path fill="#fff" d="M266 0h-40l-56-210L115 0H75L2-248h35L96-30l15-64 43-154h32l59 218 59-218h35" id="bm"/><path fill="#fff" d="M27 0v-27h64v-190l-56 39v-29l58-41h29v221h61V0H27" id="bn"/><g id="q"><use transform="matrix(0.04938271604938272,0,0,0.04938271604938272,0,0)" xlink:href="#bl"/><use transform="matrix(0.04938271604938272,0,0,0.04938271604938272,12.790123456790125,0)" xlink:href="#bm"/><use transform="matrix(0.04938271604938272,0,0,0.04938271604938272,29.530864197530867,0)" xlink:href="#be"/><use transform="matrix(0.04938271604938272,0,0,0.04938271604938272,39.40740740740741,0)" xlink:href="#bf"/><use transform="matrix(0.04938271604938272,0,0,0.04938271604938272,49.283950617283956,0)" xlink:href="#bn"/></g><g id="r"><use transform="matrix(0.04938271604938272,0,0,0.04938271604938272,0,0)" xlink:href="#bi"/><use transform="matrix(0.04938271604938272,0,0,0.04938271604938272,14.765432098765434,0)" xlink:href="#ba"/><use transform="matrix(0.04938271604938272,0,0,0.04938271604938272,24.641975308641978,0)" xlink:href="#bj"/><use transform="matrix(0.04938271604938272,0,0,0.04938271604938272,29.58024691358025,0)" xlink:href="#ba"/><use transform="matrix(0.04938271604938272,0,0,0.04938271604938272,39.4567901234568,0)" xlink:href="#aX"/><use transform="matrix(0.04938271604938272,0,0,0.04938271604938272,45.33333333333334,0)" xlink:href="#aW"/><use transform="matrix(0.04938271604938272,0,0,0.04938271604938272,55.209876543209894,0)" xlink:href="#bb"/></g><g id="s"><use transform="matrix(0.04938271604938272,0,0,0.04938271604938272,0,0)" xlink:href="#aV"/><use transform="matrix(0.04938271604938272,0,0,0.04938271604938272,9.876543209876544,0)" xlink:href="#aN"/><use transform="matrix(0.04938271604938272,0,0,0.04938271604938272,19.75308641975309,0)" xlink:href="#bb"/><use transform="matrix(0.04938271604938272,0,0,0.04938271604938272,28.641975308641978,0)" xlink:href="#ba"/></g><use transform="matrix(0.04938271604938272,0,0,0.04938271604938272,0,0)" xlink:href="#aN" id="t"/><path fill="#fff" d="M33-261c38 41 65 92 65 168S71 34 33 75H2C39 34 66-17 66-93S39-220 2-261h31" id="bo"/><path fill="#fff" d="M33 0v-38h34V0H33" id="bp"/><g id="u"><use transform="matrix(0.04938271604938272,0,0,0.04938271604938272,0,0)" xlink:href="#aV"/><use transform="matrix(0.04938271604938272,0,0,0.04938271604938272,9.876543209876544,0)" xlink:href="#aN"/><use transform="matrix(0.04938271604938272,0,0,0.04938271604938272,19.75308641975309,0)" xlink:href="#bb"/><use transform="matrix(0.04938271604938272,0,0,0.04938271604938272,28.641975308641978,0)" xlink:href="#ba"/><use transform="matrix(0.04938271604938272,0,0,0.04938271604938272,38.51851851851852,0)" xlink:href="#bo"/><use transform="matrix(0.04938271604938272,0,0,0.04938271604938272,44.39506172839506,0)" xlink:href="#bp"/></g><path fill="#333" d="M169-182c-1-43-94-46-97-3 18 66 151 10 154 114 3 95-165 93-204 36-6-8-10-19-12-30l50-8c3 46 112 56 116 5-17-69-150-10-154-114-4-87 153-88 188-35 5 8 8 18 10 28" id="bq"/><path fill="#333" d="M25 0v-190h50V0H25zm-5-208v-5l45-51h45v8l-60 48H20" id="br"/><g id="v"><use transform="matrix(0.04320987654320988,0,0,0.04320987654320988,0,0)" xlink:href="#bq"/><use transform="matrix(0.04320987654320988,0,0,0.04320987654320988,10.370370370370372,0)" xlink:href="#br"/></g><path fill="#fff" d="M84 4C-5 8 30-112 23-190h32v120c0 31 7 50 39 49 72-2 45-101 50-169h31l1 190h-30c-1-10 1-25-2-33-11 22-28 36-60 37" id="bs"/><g id="w"><use transform="matrix(0.04938271604938272,0,0,0.04938271604938272,0,0)" xlink:href="#ar"/><use transform="matrix(0.04938271604938272,0,0,0.04938271604938272,12.790123456790125,0)" xlink:href="#aN"/><use transform="matrix(0.04938271604938272,0,0,0.04938271604938272,22.66666666666667,0)" xlink:href="#aV"/><use transform="matrix(0.04938271604938272,0,0,0.04938271604938272,32.543209876543216,0)" xlink:href="#bj"/><use transform="matrix(0.04938271604938272,0,0,0.04938271604938272,37.48148148148149,0)" xlink:href="#bs"/><use transform="matrix(0.04938271604938272,0,0,0.04938271604938272,47.35802469135803,0)" xlink:href="#aX"/><use transform="matrix(0.04938271604938272,0,0,0.04938271604938272,53.23456790123457,0)" xlink:href="#aN"/></g><path fill="#fff" d="M85-194c31 0 48 13 60 33l-1-100h32l1 261h-30c-2-10 0-23-3-31C134-8 116 4 85 4 32 4 16-35 15-94c0-66 23-100 70-100zm9 24c-40 0-46 34-46 75 0 40 6 74 45 74 42 0 51-32 51-76 0-42-9-74-50-73" id="bt"/><g id="x"><use transform="matrix(0.04938271604938272,0,0,0.04938271604938272,0,0)" xlink:href="#bt"/><use transform="matrix(0.04938271604938272,0,0,0.04938271604938272,9.876543209876544,0)" xlink:href="#aW"/></g><g id="y"><use transform="matrix(0.04938271604938272,0,0,0.04938271604938272,0,0)" xlink:href="#aO"/><use transform="matrix(0.04938271604938272,0,0,0.04938271604938272,3.901234567901235,0)" xlink:href="#ba"/><use transform="matrix(0.04938271604938272,0,0,0.04938271604938272,13.777777777777779,0)" xlink:href="#bb"/></g><g id="z"><use transform="matrix(0.04938271604938272,0,0,0.04938271604938272,0,0)" xlink:href="#bt"/><use transform="matrix(0.04938271604938272,0,0,0.04938271604938272,9.876543209876544,0)" xlink:href="#aN"/><use transform="matrix(0.04938271604938272,0,0,0.04938271604938272,19.75308641975309,0)" xlink:href="#bj"/><use transform="matrix(0.04938271604938272,0,0,0.04938271604938272,24.69135802469136,0)" xlink:href="#ba"/><use transform="matrix(0.04938271604938272,0,0,0.04938271604938272,34.567901234567906,0)" xlink:href="#bb"/></g><g id="A"><use transform="matrix(0.04938271604938272,0,0,0.04938271604938272,0,0)" xlink:href="#bt"/><use transform="matrix(0.04938271604938272,0,0,0.04938271604938272,9.876543209876544,0)" xlink:href="#aW"/><use transform="matrix(0.04938271604938272,0,0,0.04938271604938272,19.75308641975309,0)" xlink:href="#aO"/></g><g id="B"><use transform="matrix(0.04938271604938272,0,0,0.04938271604938272,0,0)" xlink:href="#bb"/><use transform="matrix(0.04938271604938272,0,0,0.04938271604938272,8.88888888888889,0)" xlink:href="#aW"/><use transform="matrix(0.04938271604938272,0,0,0.04938271604938272,18.765432098765434,0)" xlink:href="#aK"/><use transform="matrix(0.04938271604938272,0,0,0.04938271604938272,28.641975308641978,0)" xlink:href="#bb"/><use transform="matrix(0.04938271604938272,0,0,0.04938271604938272,37.53086419753087,0)" xlink:href="#ba"/><use transform="matrix(0.04938271604938272,0,0,0.04938271604938272,47.40740740740741,0)" xlink:href="#aX"/><use transform="matrix(0.04938271604938272,0,0,0.04938271604938272,52.2962962962963,0)" xlink:href="#bp"/></g><path fill="#fff" d="M190 0L58-211 59 0H30v-248h39L202-35l-2-213h31V0h-41" id="bu"/><g id="C"><use transform="matrix(0.04938271604938272,0,0,0.04938271604938272,0,0)" xlink:href="#bu"/><use transform="matrix(0.04938271604938272,0,0,0.04938271604938272,12.790123456790125,0)" xlink:href="#ba"/></g><g id="D"><use transform="matrix(0.04938271604938272,0,0,0.04938271604938272,0,0)" xlink:href="#aL"/><use transform="matrix(0.04938271604938272,0,0,0.04938271604938272,3.901234567901235,0)" xlink:href="#aK"/><use transform="matrix(0.04938271604938272,0,0,0.04938271604938272,13.777777777777779,0)" xlink:href="#aL"/><use transform="matrix(0.04938271604938272,0,0,0.04938271604938272,17.679012345679013,0)" xlink:href="#aM"/><use transform="matrix(0.04938271604938272,0,0,0.04938271604938272,26.567901234567902,0)" xlink:href="#aL"/><use transform="matrix(0.04938271604938272,0,0,0.04938271604938272,30.46913580246914,0)" xlink:href="#aN"/></g><g id="E"><use transform="matrix(0.04938271604938272,0,0,0.04938271604938272,0,0)" xlink:href="#aO"/><use transform="matrix(0.04938271604938272,0,0,0.04938271604938272,3.901234567901235,0)" xlink:href="#aN"/></g><g id="F"><use transform="matrix(0.04938271604938272,0,0,0.04938271604938272,0,0)" xlink:href="#bj"/><use transform="matrix(0.04938271604938272,0,0,0.04938271604938272,4.938271604938272,0)" xlink:href="#ba"/><use transform="matrix(0.04938271604938272,0,0,0.04938271604938272,14.814814814814817,0)" xlink:href="#bi"/><use transform="matrix(0.04938271604938272,0,0,0.04938271604938272,29.58024691358025,0)" xlink:href="#aN"/></g><g id="G"><use transform="matrix(0.04938271604938272,0,0,0.04938271604938272,0,0)" xlink:href="#bt"/><use transform="matrix(0.04938271604938272,0,0,0.04938271604938272,9.876543209876544,0)" xlink:href="#aN"/><use transform="matrix(0.04938271604938272,0,0,0.04938271604938272,19.75308641975309,0)" xlink:href="#bj"/><use transform="matrix(0.04938271604938272,0,0,0.04938271604938272,24.69135802469136,0)" xlink:href="#ba"/><use transform="matrix(0.04938271604938272,0,0,0.04938271604938272,34.567901234567906,0)" xlink:href="#bb"/><use transform="matrix(0.04938271604938272,0,0,0.04938271604938272,43.4567901234568,0)" xlink:href="#bp"/></g><path fill="#333" d="M30 0v-248h187v28H63v79h144v27H63v87h162V0H30" id="bv"/><g id="H"><use transform="matrix(0.04938271604938272,0,0,0.04938271604938272,0,0)" xlink:href="#bv"/><use transform="matrix(0.04938271604938272,0,0,0.04938271604938272,11.851851851851853,0)" xlink:href="#aG"/></g><path fill="#333" d="M114-163C36-179 61-72 57 0H25l-1-190h30c1 12-1 29 2 39 6-27 23-49 58-41v29" id="bw"/><path fill="#333" d="M100-194c62-1 85 37 85 99 1 63-27 99-86 99S16-35 15-95c0-66 28-99 85-99zM99-20c44 1 53-31 53-75 0-43-8-75-51-75s-53 32-53 75 10 74 51 75" id="bx"/><path fill="#333" d="M24-231v-30h32v30H24zM-9 49c24 4 33-6 33-30v-209h32V24c2 40-23 58-65 49V49" id="by"/><g id="I"><use transform="matrix(0.04938271604938272,0,0,0.04938271604938272,0,0)" xlink:href="#bw"/><use transform="matrix(0.04938271604938272,0,0,0.04938271604938272,5.8765432098765435,0)" xlink:href="#bx"/><use transform="matrix(0.04938271604938272,0,0,0.04938271604938272,15.753086419753087,0)" xlink:href="#by"/><use transform="matrix(0.04938271604938272,0,0,0.04938271604938272,19.654320987654323,0)" xlink:href="#bx"/></g><g id="J"><use transform="matrix(0.04938271604938272,0,0,0.04938271604938272,0,0)" xlink:href="#aS"/><use transform="matrix(0.04938271604938272,0,0,0.04938271604938272,13.827160493827162,0)" xlink:href="#aL"/><use transform="matrix(0.04938271604938272,0,0,0.04938271604938272,17.728395061728396,0)" xlink:href="#aX"/><use transform="matrix(0.04938271604938272,0,0,0.04938271604938272,23.60493827160494,0)" xlink:href="#aN"/><use transform="matrix(0.04938271604938272,0,0,0.04938271604938272,33.48148148148148,0)" xlink:href="#aX"/></g><g id="K"><use transform="matrix(0.04938271604938272,0,0,0.04938271604938272,0,0)" xlink:href="#bb"/><use transform="matrix(0.04938271604938272,0,0,0.04938271604938272,8.88888888888889,0)" xlink:href="#aW"/><use transform="matrix(0.04938271604938272,0,0,0.04938271604938272,18.765432098765434,0)" xlink:href="#aX"/><use transform="matrix(0.04938271604938272,0,0,0.04938271604938272,24.641975308641978,0)" xlink:href="#bh"/><use transform="matrix(0.04938271604938272,0,0,0.04938271604938272,33.53086419753087,0)" xlink:href="#ba"/><use transform="matrix(0.04938271604938272,0,0,0.04938271604938272,43.40740740740741,0)" xlink:href="#bi"/><use transform="matrix(0.04938271604938272,0,0,0.04938271604938272,58.17283950617284,0)" xlink:href="#ba"/><use transform="matrix(0.04938271604938272,0,0,0.04938271604938272,68.0493827160494,0)" xlink:href="#bj"/><use transform="matrix(0.04938271604938272,0,0,0.04938271604938272,72.98765432098767,0)" xlink:href="#ba"/><use transform="matrix(0.04938271604938272,0,0,0.04938271604938272,82.86419753086422,0)" xlink:href="#aX"/></g><use transform="matrix(0.04938271604938272,0,0,0.04938271604938272,0,0)" xlink:href="#bn" id="L"/><path fill="#fff" d="M99-251c64 0 84 50 84 122C183-37 130 33 47-8c-14-7-20-23-25-40l30-5c6 39 69 39 84 7 9-19 16-44 16-74-10 22-31 35-62 35-49 0-73-33-73-83 0-54 28-83 82-83zm-1 141c31-1 51-18 51-49 0-36-14-67-51-67-34 0-49 23-49 58 0 34 15 58 49 58" id="bz"/><path fill="#fff" d="M72-251c31 0 50 20 50 50s-20 50-50 50-51-20-51-50 19-50 51-50zm0 81c19 0 31-12 31-31 1-20-13-32-31-32s-32 12-31 32c0 19 12 31 31 31" id="bA"/><g id="M"><use transform="matrix(0.04938271604938272,0,0,0.04938271604938272,0,0)" xlink:href="#bz"/><use transform="matrix(0.04938271604938272,0,0,0.04938271604938272,9.876543209876544,0)" xlink:href="#bf"/><use transform="matrix(0.04938271604938272,0,0,0.04938271604938272,19.75308641975309,0)" xlink:href="#bA"/></g><use transform="matrix(0.04938271604938272,0,0,0.04938271604938272,0,0)" xlink:href="#be" id="N"/><path fill="#333" d="M108 0H70L1-190h34L89-25l56-165h34" id="bB"/><g id="O"><use transform="matrix(0.04938271604938272,0,0,0.04938271604938272,0,0)" xlink:href="#bB"/><use transform="matrix(0.04938271604938272,0,0,0.04938271604938272,8.88888888888889,0)" xlink:href="#aF"/><use transform="matrix(0.04938271604938272,0,0,0.04938271604938272,18.765432098765434,0)" xlink:href="#bw"/><use transform="matrix(0.04938271604938272,0,0,0.04938271604938272,24.641975308641978,0)" xlink:href="#aE"/><use transform="matrix(0.04938271604938272,0,0,0.04938271604938272,34.51851851851852,0)" xlink:href="#aF"/></g><path fill="#333" d="M107 61C57 61 25 39 23-9c-2-65 71-58 78-115h30c1 64-76 54-76 114 0 30 21 42 52 43 32 0 53-17 56-46l32 2c-6 46-36 72-88 72zm26-251v35H99v-35h34" id="bC"/><g id="P"><use transform="matrix(0.04938271604938272,0,0,0.04938271604938272,0,0)" xlink:href="#bC"/><use transform="matrix(0.04938271604938272,0,0,0.04938271604938272,10.814814814814815,0)" xlink:href="#bv"/><use transform="matrix(0.04938271604938272,0,0,0.04938271604938272,22.666666666666668,0)" xlink:href="#aB"/></g><g id="Q"><use transform="matrix(0.04938271604938272,0,0,0.04938271604938272,0,0)" xlink:href="#aG"/><use transform="matrix(0.04938271604938272,0,0,0.04938271604938272,8.88888888888889,0)" xlink:href="#aF"/><use transform="matrix(0.04938271604938272,0,0,0.04938271604938272,18.765432098765434,0)" xlink:href="#ax"/><use transform="matrix(0.04938271604938272,0,0,0.04938271604938272,28.641975308641978,0)" xlink:href="#aG"/><use transform="matrix(0.04938271604938272,0,0,0.04938271604938272,37.53086419753087,0)" xlink:href="#bx"/><use transform="matrix(0.04938271604938272,0,0,0.04938271604938272,47.40740740740741,0)" xlink:href="#bw"/></g><path fill="#333" d="M101-234c-31-9-42 10-38 44h38v23H63V0H32v-167H5v-23h27c-7-52 17-82 69-68v24" id="bD"/><g id="R"><use transform="matrix(0.04938271604938272,0,0,0.04938271604938272,0,0)" xlink:href="#ay"/><use transform="matrix(0.04938271604938272,0,0,0.04938271604938272,3.901234567901235,0)" xlink:href="#ax"/><use transform="matrix(0.04938271604938272,0,0,0.04938271604938272,13.777777777777779,0)" xlink:href="#bD"/><use transform="matrix(0.04938271604938272,0,0,0.04938271604938272,18.71604938271605,0)" xlink:href="#bw"/><use transform="matrix(0.04938271604938272,0,0,0.04938271604938272,24.592592592592595,0)" xlink:href="#aA"/><use transform="matrix(0.04938271604938272,0,0,0.04938271604938272,34.46913580246914,0)" xlink:href="#bw"/><use transform="matrix(0.04938271604938272,0,0,0.04938271604938272,40.345679012345684,0)" xlink:href="#bx"/><use transform="matrix(0.04938271604938272,0,0,0.04938271604938272,50.22222222222223,0)" xlink:href="#by"/><use transform="matrix(0.04938271604938272,0,0,0.04938271604938272,54.12345679012346,0)" xlink:href="#bx"/></g><g id="S"><use transform="matrix(0.04938271604938272,0,0,0.04938271604938272,0,0)" xlink:href="#aE"/><use transform="matrix(0.04938271604938272,0,0,0.04938271604938272,9.876543209876544,0)" xlink:href="#aF"/><use transform="matrix(0.04938271604938272,0,0,0.04938271604938272,19.75308641975309,0)" xlink:href="#aH"/><use transform="matrix(0.04938271604938272,0,0,0.04938271604938272,24.69135802469136,0)" xlink:href="#aF"/><use transform="matrix(0.04938271604938272,0,0,0.04938271604938272,34.567901234567906,0)" xlink:href="#az"/><use transform="matrix(0.04938271604938272,0,0,0.04938271604938272,43.4567901234568,0)" xlink:href="#aH"/><use transform="matrix(0.04938271604938272,0,0,0.04938271604938272,48.39506172839507,0)" xlink:href="#aA"/></g><path fill="#333" d="M84 4C-5 8 30-112 23-190h32v120c0 31 7 50 39 49 72-2 45-101 50-169h31l1 190h-30c-1-10 1-25-2-33-11 22-28 36-60 37" id="bE"/><g id="T"><use transform="matrix(0.04938271604938272,0,0,0.04938271604938272,0,0)" xlink:href="#bE"/><use transform="matrix(0.04938271604938272,0,0,0.04938271604938272,9.876543209876544,0)" xlink:href="#ax"/></g><path fill="#333" d="M115-194c53 0 69 39 70 98 0 66-23 100-70 100C84 3 66-7 56-30L54 0H23l1-261h32v101c10-23 28-34 59-34zm-8 174c40 0 45-34 45-75 0-40-5-75-45-74-42 0-51 32-51 76 0 43 10 73 51 73" id="bF"/><path fill="#333" d="M103-251c84 0 111 97 45 133-19 10-37 24-39 52H78c0-63 77-55 77-114 0-30-21-42-52-43-32 0-53 17-56 46l-32-2c7-45 34-72 88-72zM77 0v-35h34V0H77" id="bG"/><g id="U"><use transform="matrix(0.04938271604938272,0,0,0.04938271604938272,0,0)" xlink:href="#bx"/><use transform="matrix(0.04938271604938272,0,0,0.04938271604938272,9.876543209876544,0)" xlink:href="#bF"/><use transform="matrix(0.04938271604938272,0,0,0.04938271604938272,19.75308641975309,0)" xlink:href="#by"/><use transform="matrix(0.04938271604938272,0,0,0.04938271604938272,23.654320987654323,0)" xlink:href="#aF"/><use transform="matrix(0.04938271604938272,0,0,0.04938271604938272,33.53086419753087,0)" xlink:href="#aH"/><use transform="matrix(0.04938271604938272,0,0,0.04938271604938272,38.46913580246914,0)" xlink:href="#bx"/><use transform="matrix(0.04938271604938272,0,0,0.04938271604938272,48.345679012345684,0)" xlink:href="#bG"/></g><path fill="#333" d="M212-179c-10-28-35-45-73-45-59 0-87 40-87 99 0 60 29 101 89 101 43 0 62-24 78-52l27 14C228-24 195 4 139 4 59 4 22-46 18-125c-6-104 99-153 187-111 19 9 31 26 39 46" id="bH"/><g id="V"><use transform="matrix(0.04938271604938272,0,0,0.04938271604938272,0,0)" xlink:href="#bC"/><use transform="matrix(0.04938271604938272,0,0,0.04938271604938272,10.814814814814815,0)" xlink:href="#bH"/><use transform="matrix(0.04938271604938272,0,0,0.04938271604938272,23.60493827160494,0)" xlink:href="#bx"/><use transform="matrix(0.04938271604938272,0,0,0.04938271604938272,33.48148148148148,0)" xlink:href="#aB"/><use transform="matrix(0.04938271604938272,0,0,0.04938271604938272,37.382716049382715,0)" xlink:href="#bx"/><use transform="matrix(0.04938271604938272,0,0,0.04938271604938272,47.25925925925926,0)" xlink:href="#bw"/></g><g id="W"><use transform="matrix(0.04938271604938272,0,0,0.04938271604938272,0,0)" xlink:href="#aE"/><use transform="matrix(0.04938271604938272,0,0,0.04938271604938272,9.876543209876544,0)" xlink:href="#aF"/><use transform="matrix(0.04938271604938272,0,0,0.04938271604938272,19.75308641975309,0)" xlink:href="#aH"/><use transform="matrix(0.04938271604938272,0,0,0.04938271604938272,24.69135802469136,0)" xlink:href="#aF"/><use transform="matrix(0.04938271604938272,0,0,0.04938271604938272,34.567901234567906,0)" xlink:href="#az"/><use transform="matrix(0.04938271604938272,0,0,0.04938271604938272,43.4567901234568,0)" xlink:href="#aH"/><use transform="matrix(0.04938271604938272,0,0,0.04938271604938272,48.39506172839507,0)" xlink:href="#aA"/><use transform="matrix(0.04938271604938272,0,0,0.04938271604938272,58.27160493827161,0)" xlink:href="#aE"/><use transform="matrix(0.04938271604938272,0,0,0.04938271604938272,68.14814814814815,0)" xlink:href="#bx"/><use transform="matrix(0.04938271604938272,0,0,0.04938271604938272,78.0246913580247,0)" xlink:href="#bG"/></g><path fill="#333" d="M175 0L67-191c6 58 2 128 3 191H24v-248h59L193-55c-6-58-2-129-3-193h46V0h-61" id="bI"/><path fill="#333" d="M140-251c80 0 125 45 125 126S219 4 139 4C58 4 15-44 15-125s44-126 125-126zm-1 214c52 0 73-35 73-88 0-50-21-86-72-86-52 0-73 35-73 86s22 88 72 88" id="bJ"/><g id="X"><use transform="matrix(0.04320987654320988,0,0,0.04320987654320988,0,0)" xlink:href="#bI"/><use transform="matrix(0.04320987654320988,0,0,0.04320987654320988,11.19135802469136,0)" xlink:href="#bJ"/></g><g id="Y"><use transform="matrix(0.04938271604938272,0,0,0.04938271604938272,0,0)" xlink:href="#aq"/><use transform="matrix(0.04938271604938272,0,0,0.04938271604938272,9.876543209876544,0)" xlink:href="#aW"/><use transform="matrix(0.04938271604938272,0,0,0.04938271604938272,19.75308641975309,0)" xlink:href="#aW"/><use transform="matrix(0.04938271604938272,0,0,0.04938271604938272,29.629629629629633,0)" xlink:href="#aX"/></g><path fill="#fff" d="M118-194c89-4 53 116 60 194h-32v-121c0-31-8-49-39-48C35-167 63-67 58 0H26l-1-190h30c1 10-1 24 2 32 11-22 29-35 61-36zm47-64c-3 23-9 48-36 47-26-1-65-44-74 0H39c4-23 8-48 36-47s64 44 74 0h16" id="bK"/><g id="Z"><use transform="matrix(0.04938271604938272,0,0,0.04938271604938272,0,0)" xlink:href="#bb"/><use transform="matrix(0.04938271604938272,0,0,0.04938271604938272,8.88888888888889,0)" xlink:href="#aW"/><use transform="matrix(0.04938271604938272,0,0,0.04938271604938272,18.765432098765434,0)" xlink:href="#bK"/><use transform="matrix(0.04938271604938272,0,0,0.04938271604938272,28.641975308641978,0)" xlink:href="#aN"/><use transform="matrix(0.04938271604938272,0,0,0.04938271604938272,38.51851851851852,0)" xlink:href="#aO"/></g><g id="aa"><use transform="matrix(0.04938271604938272,0,0,0.04938271604938272,0,0)" xlink:href="#aV"/><use transform="matrix(0.04938271604938272,0,0,0.04938271604938272,9.876543209876544,0)" xlink:href="#aW"/><use transform="matrix(0.04938271604938272,0,0,0.04938271604938272,19.75308641975309,0)" xlink:href="#aX"/><use transform="matrix(0.04938271604938272,0,0,0.04938271604938272,25.629629629629633,0)" xlink:href="#aL"/><use transform="matrix(0.04938271604938272,0,0,0.04938271604938272,29.530864197530867,0)" xlink:href="#ba"/><use transform="matrix(0.04938271604938272,0,0,0.04938271604938272,39.40740740740741,0)" xlink:href="#bt"/><use transform="matrix(0.04938271604938272,0,0,0.04938271604938272,49.283950617283956,0)" xlink:href="#ba"/></g><g id="ab"><use transform="matrix(0.04938271604938272,0,0,0.04938271604938272,0,0)" xlink:href="#bt"/><use transform="matrix(0.04938271604938272,0,0,0.04938271604938272,9.876543209876544,0)" xlink:href="#aW"/></g><g id="ac"><use transform="matrix(0.04938271604938272,0,0,0.04938271604938272,0,0)" xlink:href="#bb"/><use transform="matrix(0.04938271604938272,0,0,0.04938271604938272,8.88888888888889,0)" xlink:href="#aN"/><use transform="matrix(0.04938271604938272,0,0,0.04938271604938272,18.765432098765434,0)" xlink:href="#aO"/><use transform="matrix(0.04938271604938272,0,0,0.04938271604938272,22.666666666666668,0)" xlink:href="#aL"/><use transform="matrix(0.04938271604938272,0,0,0.04938271604938272,26.567901234567902,0)" xlink:href="#bt"/><use transform="matrix(0.04938271604938272,0,0,0.04938271604938272,36.44444444444444,0)" xlink:href="#aN"/></g><g id="ad"><use transform="matrix(0.04938271604938272,0,0,0.04938271604938272,0,0)" xlink:href="#bt"/><use transform="matrix(0.04938271604938272,0,0,0.04938271604938272,9.876543209876544,0)" xlink:href="#aW"/><use transform="matrix(0.04938271604938272,0,0,0.04938271604938272,19.75308641975309,0)" xlink:href="#aO"/></g><g id="ae"><use transform="matrix(0.04938271604938272,0,0,0.04938271604938272,0,0)" xlink:href="#as"/><use transform="matrix(0.04938271604938272,0,0,0.04938271604938272,10.814814814814815,0)" xlink:href="#ar"/><use transform="matrix(0.04938271604938272,0,0,0.04938271604938272,23.60493827160494,0)" xlink:href="#ao"/><use transform="matrix(0.04938271604938272,0,0,0.04938271604938272,35.45679012345679,0)" xlink:href="#bd"/><use transform="matrix(0.04938271604938272,0,0,0.04938271604938272,45.333333333333336,0)" xlink:href="#be"/><use transform="matrix(0.04938271604938272,0,0,0.04938271604938272,55.20987654320988,0)" xlink:href="#bf"/><use transform="matrix(0.04938271604938272,0,0,0.04938271604938272,65.08641975308643,0)" xlink:href="#bf"/></g><path fill="#333" d="M140-251c81 0 123 46 123 126C263-46 219 4 140 4 59 4 17-45 17-125s42-126 123-126zm0 227c63 0 89-41 89-101s-29-99-89-99c-61 0-89 39-89 99S79-25 140-24" id="bL"/><g id="af"><use transform="matrix(0.04938271604938272,0,0,0.04938271604938272,0,0)" xlink:href="#bL"/><use transform="matrix(0.04938271604938272,0,0,0.04938271604938272,13.827160493827162,0)" xlink:href="#aH"/><use transform="matrix(0.04938271604938272,0,0,0.04938271604938272,18.765432098765434,0)" xlink:href="#bw"/><use transform="matrix(0.04938271604938272,0,0,0.04938271604938272,24.641975308641978,0)" xlink:href="#bx"/></g><g id="ag"><use transform="matrix(0.04938271604938272,0,0,0.04938271604938272,0,0)" xlink:href="#az"/><use transform="matrix(0.04938271604938272,0,0,0.04938271604938272,8.88888888888889,0)" xlink:href="#bx"/><use transform="matrix(0.04938271604938272,0,0,0.04938271604938272,18.765432098765434,0)" xlink:href="#aB"/><use transform="matrix(0.04938271604938272,0,0,0.04938271604938272,22.666666666666668,0)" xlink:href="#bx"/><use transform="matrix(0.04938271604938272,0,0,0.04938271604938272,32.543209876543216,0)" xlink:href="#bw"/></g><path fill="#fff" d="M115-194c53 0 69 39 70 98 0 66-23 100-70 100C84 3 66-7 56-30L54 0H23l1-261h32v101c10-23 28-34 59-34zm-8 174c40 0 45-34 45-75 0-40-5-75-45-74-42 0-51 32-51 76 0 43 10 73 51 73" id="bM"/><g id="ah"><use transform="matrix(0.049382716049382706,0,0,0.049382716049382706,0,0)" xlink:href="#aT"/><use transform="matrix(0.049382716049382706,0,0,0.049382716049382706,11.85185185185185,0)" xlink:href="#bi"/><use transform="matrix(0.049382716049382706,0,0,0.049382716049382706,26.617283950617278,0)" xlink:href="#bM"/><use transform="matrix(0.049382716049382706,0,0,0.049382716049382706,36.49382716049382,0)" xlink:href="#ba"/><use transform="matrix(0.049382716049382706,0,0,0.049382716049382706,46.37037037037037,0)" xlink:href="#bb"/></g><g id="ai"><use transform="matrix(0.049382716049382706,0,0,0.049382716049382706,0,0)" xlink:href="#bb"/><use transform="matrix(0.049382716049382706,0,0,0.049382716049382706,8.888888888888888,0)" xlink:href="#aW"/><use transform="matrix(0.049382716049382706,0,0,0.049382716049382706,18.76543209876543,0)" xlink:href="#aX"/><use transform="matrix(0.049382716049382706,0,0,0.049382716049382706,24.64197530864197,0)" xlink:href="#bh"/><use transform="matrix(0.049382716049382706,0,0,0.049382716049382706,33.53086419753086,0)" xlink:href="#ba"/><use transform="matrix(0.049382716049382706,0,0,0.049382716049382706,43.407407407407405,0)" xlink:href="#bi"/><use transform="matrix(0.049382716049382706,0,0,0.049382716049382706,58.17283950617284,0)" xlink:href="#ba"/><use transform="matrix(0.049382716049382706,0,0,0.049382716049382706,68.04938271604938,0)" xlink:href="#bj"/><use transform="matrix(0.049382716049382706,0,0,0.049382716049382706,72.98765432098764,0)" xlink:href="#ba"/><use transform="matrix(0.049382716049382706,0,0,0.049382716049382706,82.86419753086419,0)" xlink:href="#aX"/><use transform="matrix(0.049382716049382706,0,0,0.049382716049382706,88.74074074074073,0)" xlink:href="#aW"/><use transform="matrix(0.049382716049382706,0,0,0.049382716049382706,98.61728395061728,0)" xlink:href="#bb"/></g><use transform="matrix(0.049382716049382706,0,0,0.049382716049382706,0,0)" xlink:href="#aN" id="aj"/><g id="ak"><use transform="matrix(0.049382716049382706,0,0,0.049382716049382706,0,0)" xlink:href="#bf"/><use transform="matrix(0.049382716049382706,0,0,0.049382716049382706,9.87654320987654,0)" xlink:href="#bA"/></g><g id="al"><use transform="matrix(0.06172839506172839,0,0,0.06172839506172839,0,0)" xlink:href="#ap"/><use transform="matrix(0.06172839506172839,0,0,0.06172839506172839,14.814814814814813,0)" xlink:href="#bb"/><use transform="matrix(0.06172839506172839,0,0,0.06172839506172839,25.925925925925924,0)" xlink:href="#aV"/><use transform="matrix(0.06172839506172839,0,0,0.06172839506172839,38.2716049382716,0)" xlink:href="#aW"/><use transform="matrix(0.06172839506172839,0,0,0.06172839506172839,50.61728395061728,0)" xlink:href="#aX"/><use transform="matrix(0.06172839506172839,0,0,0.06172839506172839,57.962962962962955,0)" xlink:href="#aN"/><use transform="matrix(0.06172839506172839,0,0,0.06172839506172839,70.30864197530863,0)" xlink:href="#aX"/></g><use transform="matrix(0.06172839506172839,0,0,0.06172839506172839,0,0)" xlink:href="#bd" id="am"/><path fill="#fff" d="M177-190C167-65 218 103 67 71c-23-6-38-20-44-43l32-5c15 47 100 32 89-28v-30C133-14 115 1 83 1 29 1 15-40 15-95c0-56 16-97 71-98 29-1 48 16 59 35 1-10 0-23 2-32h30zM94-22c36 0 50-32 50-73 0-42-14-75-50-75-39 0-46 34-46 75s6 73 46 73" id="bN"/><g id="an"><use transform="matrix(0.06172839506172839,0,0,0.06172839506172839,0,0)" xlink:href="#bb"/><use transform="matrix(0.06172839506172839,0,0,0.06172839506172839,11.11111111111111,0)" xlink:href="#aW"/><use transform="matrix(0.06172839506172839,0,0,0.06172839506172839,23.45679012345679,0)" xlink:href="#bN"/><use transform="matrix(0.06172839506172839,0,0,0.06172839506172839,35.80246913580247,0)" xlink:href="#bs"/><use transform="matrix(0.06172839506172839,0,0,0.06172839506172839,48.148148148148145,0)" xlink:href="#aK"/><use transform="matrix(0.06172839506172839,0,0,0.06172839506172839,60.49382716049382,0)" xlink:href="#bt"/><use transform="matrix(0.06172839506172839,0,0,0.06172839506172839,72.8395061728395,0)" xlink:href="#ba"/></g></defs></g></svg>